/* XPM */
static const char *cnN6X2Fsc2lhdm9z[] = {
/* columns rows colors chars-per-pixel */
"64 64 256 2 ",
"   c #0C0504",
".  c #0E0C0D",
"X  c #0A0407",
"o  c #14020B",
"O  c #120C0C",
"+  c #170907",
"@  c #1C120C",
"#  c #0E0E10",
"$  c #0A001A",
"%  c #130C12",
"&  c #170718",
"*  c #1D1314",
"=  c #27150D",
"-  c #2D0B1E",
";  c #27061A",
":  c #271917",
">  c #331C12",
",  c #351C19",
"<  c #2A0B14",
"1  c #2D231C",
"2  c #39251B",
"3  c #1A0A27",
"4  c #1E102F",
"5  c #2D0C21",
"6  c #2C0625",
"7  c #320A24",
"8  c #330628",
"9  c #2A1324",
"0  c #29153B",
"q  c #35142E",
"w  c #2A2424",
"e  c #382926",
"r  c #3B352A",
"t  c #332C30",
"y  c #471D15",
"u  c #42291D",
"i  c #562B1D",
"p  c #482A26",
"a  c #582C26",
"s  c #43322D",
"d  c #4A3328",
"f  c #56342C",
"g  c #4C3533",
"h  c #493837",
"j  c #533C33",
"k  c #573938",
"l  c #432E36",
"z  c #683C38",
"x  c #613327",
"c  c #461C26",
"v  c #5B4A3E",
"b  c #58443A",
"n  c #4E483E",
"m  c #67463C",
"M  c #764538",
"N  c #2E1753",
"B  c #392757",
"V  c #3D2D43",
"C  c #351D67",
"Z  c #3A2662",
"A  c #493945",
"S  c #523743",
"D  c #4C3652",
"F  c #703F44",
"G  c #4A386B",
"H  c #472F71",
"J  c #494844",
"K  c #544A45",
"L  c #5C4C42",
"P  c #544B4C",
"I  c #5A4C4C",
"U  c #574446",
"Y  c #5D534C",
"T  c #5A5346",
"R  c #574B53",
"E  c #5D5254",
"W  c #5D545B",
"Q  c #5B5657",
"!  c #4D504C",
"~  c #624C43",
"^  c #694946",
"/  c #764A47",
"(  c #625144",
")  c #65544B",
"_  c #6B544A",
"`  c #69574A",
"'  c #7C524C",
"]  c #74574D",
"[  c #634B53",
"{  c #625354",
"}  c #6C5B54",
"|  c #62555C",
" . c #655B5C",
".. c #6B5D5B",
"X. c #675754",
"o. c #775A55",
"O. c #794D54",
"+. c #6C625B",
"@. c #686257",
"#. c #746254",
"$. c #7B6355",
"%. c #73635C",
"&. c #7C665B",
"*. c #7D6A5D",
"=. c #756B5E",
"-. c #726B54",
";. c #5B5763",
":. c #544D73",
">. c #625661",
",. c #645C64",
"<. c #6A5E65",
"1. c #6A5E69",
"2. c #675D68",
"3. c #775C67",
"4. c #70526B",
"5. c #6D6263",
"6. c #676069",
"7. c #6C626B",
"8. c #696366",
"9. c #736464",
"0. c #756A64",
"q. c #7D6B63",
"w. c #72656D",
"e. c #75696E",
"r. c #7B6C6C",
"t. c #7A6467",
"y. c #7B7368",
"u. c #6D6773",
"i. c #746771",
"p. c #756A73",
"a. c #7A6C74",
"s. c #7B6E79",
"d. c #756A78",
"f. c #7D7274",
"g. c #7C717A",
"h. c #7E7A78",
"j. c #6E7A76",
"k. c #5F6265",
"l. c #83524C",
"z. c #875954",
"x. c #945C56",
"c. c #865149",
"v. c #826D5E",
"b. c #88655A",
"n. c #96655B",
"m. c #8D654C",
"M. c #A36359",
"N. c #865E67",
"B. c #826E63",
"V. c #836C6B",
"C. c #886866",
"Z. c #976965",
"A. c #857164",
"S. c #84736C",
"D. c #8B766B",
"F. c #8D796D",
"G. c #8A7567",
"H. c #927B6C",
"J. c #98746A",
"K. c #826D73",
"L. c #896C76",
"P. c #847374",
"I. c #8C7C7B",
"U. c #887777",
"Y. c #927E73",
"T. c #9A7877",
"R. c #996A74",
"E. c #A66D67",
"W. c #B26F69",
"Q. c #A4726C",
"!. c #AB7769",
"~. c #B3776B",
"^. c #A77975",
"/. c #B47677",
"(. c #8D8379",
"). c #938174",
"_. c #9B8275",
"`. c #94847B",
"'. c #9B8A7E",
"]. c #98867B",
"[. c #A6857B",
"{. c #B98477",
"}. c #B18671",
"|. c #59398C",
" X c #613B9F",
".X c #6B5589",
"XX c #776888",
"oX c #7158A2",
"OX c #8A7A84",
"+X c #937B85",
"@X c #866D92",
"#X c #B37983",
"$X c #8671B4",
"%X c #9575D1",
"&X c #9C8B82",
"*X c #978787",
"=X c #9E9089",
"-X c #9A8B96",
";X c #8E8589",
":X c #A28E84",
">X c #A38586",
",X c #B48882",
"<X c #A59385",
"1X c #AA9486",
"2X c #A5948B",
"3X c #AB968B",
"4X c #AD9A8C",
"5X c #A49B88",
"6X c #B29B8D",
"7X c #B89689",
"8X c #A58C97",
"9X c #AC9C93",
"0X c #A89799",
"qX c #B39D92",
"wX c #B99C95",
"eX c #ADA19A",
"rX c #B5A294",
"tX c #B9A496",
"yX c #B5A49A",
"uX c #BAA69A",
"iX c #BDA99B",
"pX c #B7AB97",
"aX c #B0A38C",
"sX c #AD97A3",
"dX c #B297A5",
"fX c #B7A9A4",
"gX c #ACABB0",
"hX c #9CA3B6",
"jX c #CA9B8F",
"kX c #C4A99B",
"lX c #C4AEA4",
"zX c #CAB5A7",
"xX c #D3BBAC",
"cX c #D9B3AA",
"vX c #D6BFB1",
"bX c #C9B6B4",
"nX c #E3B8AF",
"mX c #B1C6B0",
"MX c #DCC4B7",
"NX c #C2CFBB",
"BX c #E2CABC",
"VX c #AEADCF",
"CX c #B79FE2",
"ZX c #D3B2FD",
"AX c #C1BAC1",
"SX c #D8C8C8",
"DX c #CED2C9",
"FX c #E4CEC1",
"GX c #E8CCC0",
"HX c #E7D2C4",
"JX c #F3D8D2",
"KX c #FAE8D6",
"LX c #E7C8FF",
"PX c #EAD2FF",
"IX c #EFEEF7",
"UX c #D7DEE9",
/* pixels */
"F.H.H.Y.Y.Y.`.].'.`.'.&X&X2X1X:X<X<X<X3X4X6XqXqXqXrXtXtXtXtXtXtXtXrXrXqXqXqXqXqX6X3X2X<X].F.).) v L #.xXHXMX[.JXFXH.&.*.%.=.=.L ",
"H.Y.).).).`.].&X`.`.&X2X:X:X<X<X<X<X3X4X4X4X6X6XtXtXtXtXtXtXtXtXuXtXtXtXtXrXqX6XqX3X2X<X].).`.` v L #.zXFXxX_.HXFXH.&.*.&.*.0.L ",
"F.F.Y.Y.Y.(.`.`.2X&X&X&X:X<X<X<X<X<X3X4X6XrXqXqXqXrXtXtXtXtXtXtXuXtXtXtXtXtXrXqXqX2X3X<X'.).].` v L #.zXFXxX).HXFXF.&.*.*.q.q.L ",
"Y.Y.(.`.(.(.(.`.U.`.&X&X:X<X1X1X<X<X3X4X6XrXrXrXtXtXuXiXkXkXiXuXtXtXtXtXtXtXrXrXqX4X3X2X'.).].` v L #.zXFXMX].HXFXH.&.*.q.q.q.K ",
"2 2 1 w w 1 1 1 s q.2X2X:X:X1X3X3X3X4X4X4X6XqXrXrXtXtXuXiXuXuXuXuXuXtXtXtXtXrXrXqX4X4X2X&X).'.} v L #.zXFXMX_.HXFXD.&.*.q.q.q.L ",
"                : %.2X<X:X<X1X3X4X4X4X6XrXrXtXtXtXtXtXuXiXiXiXiXiXiXuXuXuXtXyXrXrX9X9X3X&X`.&X} L ( #.zXHXMX_.BXBXD.&.q.*.q.q.I ",
"O O O O O O O   w 9.&X&X:X3X4X3X4X4X6XrXrXrXrXrXiXiXiXiXiXkXkXkXuXuXuXuXuXuXyXrXrXqXqX9X<X`.&X} ( ( #.zXFXvX).MXBXH.*.v.&.*.q.( ",
".     O O O     : %.=X2X2X1X1X4X4X6X6X6X4X1X<X[.4X4X3X4X4X6X6X6XqXrXtXuXiXiXuXrXyXqXqX9X2X'.&X#.v ( #.zXBXxXY.MXBXH.v.B.&.*.q.) ",
"% . % . . O O   : +.2X2X2X3X4X4X6X1X6X1X).` 2 u u b #.v.] d j j j :XlXuXiXuXqXuXqXfX3X9X2X`.9X#.v ( #.zXBXxXH.vXMXD.&.v.q.*.q.) ",
"# # # . . O .   : +.2X2X2X3X4X4X6X6XrX[.$.d > 2 2 = _ _.b.u p u d b.Y._.qXlXuXrXyX9XrX9X2X&X&X*.L ( #.lXBXxXH.vXMXD.b.B.B.q.q.) ",
"# # # . # O .   : ..=X2X2X3X4X4X4X6X6X1X*.j d 2 > 2 b m j f f f d d 2 u m D.4XlXfX3XyXrX=X2X9X} L ( #.kXBXxXH.xXBXD.&.B.B.B.q.) ",
"# # # . # O     * ..=X2X2X4X4X6X6XrX6X1X*.j d 2 2 d b f m ' / m z f f p > , _ :XfXuX2XyXeX`.9X%.( ( ` iXMXxXH.zXBXD.&.v.B.B.q.) ",
"# # # . . O     *  .=X2X2X4X4X6X6XtXrX1X#.d d u 2 u o.T.Z.b.l.' ' m k f p u 2 p *.uXrX3X9X&X2X=.( ( ` tXMXxXG.lXBXG.$.v.A.A.B.( ",
"# # # . . O O   *  .=X2X2X9X4X6X6X6X6X1Xv.b d d > $.kXkXQ.z.l.n./ / ^ f p p p 2 > ) 9XuX=X2X9X%.( ( ` tXxXzXA.kXMXG.&.v.A.A.B.` ",
". . . . O % O   * X.=X2X2X9X4X6XrX6X6X1XA.j > 2 ] MXJXcX[.Q.Z.Z.Z.Z.z.' ' ' m g 2 + ~ yXyX&X2Xy.~ ( ` rXxXlXv.kXMXG.v.B.A.B.B.` ",
". . . . O % O   @ X.=X2X2X9X4X6XqXqXrX<Xv.j 2 m HXJXnXkXQ.Q.^.E.Z.Z.Z.Z.C.' ^ ~ b 2 + ) yX2X2Xq.v v ` qXzXkXb.tXvXG.&.v.B.v.q.` ",
". . . . % % O O @ Y =X2X2X4X4X6XwX9X9X9Xy.j d 7XJXnXjX}.!.!.W.E.Q.E.Z.Z.n.z.' m m j = + S.9X9X=.L ` ~ 6XzXlX$.6XxXH.#.*.D.B.*.` ",
". . . . % % O O @ Y =X2X1X4X4X6XwXwX9X2Xq.L _ jXnXjX{.!.!.!.W.W.^.Q.E.n.x.x.l.' m ~ 2   b &XeX0.L ` ( 4XlXkX#.4XxXH.#.&.G.v.*.` ",
". . . . % % O O @ Y =X2X3X6X4X6X7X7XaX5X=.` v.kXjX{.~.~.~.~././.W.E.E.E.n.x.z.' ^ ] b + @ (.eX0.L ` ~ 1XkXuX] <XxXH.$.&.A.*.*.` ",
". . . . % % O   @ Y =X2X3X6X4X6X7X7XaX5X=.#.H.7X{.~.!.~././././.W.W.!.E.E.n.z.' ^ _ ) >   I.eX9.L ` ~ :XiXrX] [.xXH.$.$.A.*.q.} ",
". . . . . % O   @ I *X3X3X6X4X6X7X7XrXeXy.X.T.,X{././././.#X#X#XW.W.E.M.n.n.z.o.] L ` e + f.fX0.L ) ~ &XiXtXo.[.zXH.&.&.B.q.B.#.",
". . . . . # O   O K *X2X3X4X4X6XwX7XqX9XS.( T.,X/./././././.#X/.W.W.E.E.E.Z.C.b.&.~ X.r @ 0.fX0.L ) ( '.iXtX$.[.lXH.&.*.B.q.A.#.",
". . . . . # .   O K *X2X3X4X4X6XwXwXqXqXS.m [.7X,X^.^.^.^.Q.!././.~.Z.x.z.o.] ^ ) ) } h @ 9.fX0.v ) ( ].uXqXo.].iXD.&.*.B.q.B.#.",
". . . . . # .   O K *X2X3X4X4X6X4XwXwXqXG.m }.{.J.' k k f a M n.{.Z./ p > = = = e U X.h @ q.fX=.v ( ( Y.rX4X] ).tXD.&.*.A.q.B.o.",
". . .   . # .   @ K I.9X4X1XqX6XqXqXwX4XJ.f }.}.i , e 9 < , i c.^.C.k - , l g e + 1 I U e q.yX%.L ( ( ].rX4X] D.4XF.&.*.q.B.q.%.",
"  . .   . # . X   K &X9X2X1X6XtX4X2XuXtXJ.m m.n.p X.OXd.A S / n.#XC.[ k S P X.I S e e p s v =Xq.v L v Y.<X<X` D.4XD.&.q.q.B.q.%.",
"  . . . # % .   O K *X2X2X6X1X4X4XyX2X2X1Xb.y m ^ <.XX.X:.4.O.p c c g X.| l U U [ [ g g g d ].*.v ( ~ ).3X<X` D.3XD.&.q.B.S.r.%.",
"O     . % % . X   J (.2X2X6X6XwX4X<XeXeXY.B.m b.C.[ D D D 4.T.O.N.^ k V.w.h h l k C.^ ] j v 5Xy.b L v F.:X:X~ B.2XD.q.B.V.S.r.o.",
"O O O O % % .   O n (.9XqX6XqX1XpX3XeXeXU.I._.b.n.' 3.L.K.L.R./ #Xz.p C.V.3.3.o.O.N.z o.g v 9X=.L ( b A.&X:X( B.:XD.q.V.S.S.V...",
". X . . . X       h `.2XY._.[._.v.'.;XOX6.,.&XH.!.n.Z.R.T.#XZ./ E.z.a z.C.C.C.N.N.O.F O.d L pX=.b L b A.&X'.~ &.:XD.B.S.S.P.S.} ",
": : : : : : w w : s &XB.d m ^ ] o.A 0 :.:.:.-XC.}.~././.^.R.' / E.x.a a z.Z.C.z./ F / / p %.fXy.v ) ( F.:X&X( B.&XD.V.S.P.U.V.} ",
"E E Q W W W ,.5.K s `.&.$.BXBXGXSXgXu.VXUXVX-X>XZ.M.M.x.x.z.' Q.!.!.x.a ' ' z.l.z.' / ' 2 +.(.@.A A l [ ..9.g %.'.D.S.P.P.U.S.} ",
"5.| w.>.>.i.<.f. .s `.&.H.KXKXKXJXAX;.hXIXhXXX8X#X!.~.~././.Z.z.C.b.m M z.Q./.^.E.z.z.m 1 r w w N C G :.V * o %.`.S.r.V.S.S.r.5.",
"{ E X.| X. . .9.{ h } ` #.<XH.F.y.h.J ;.d.;.>.>X^.E.~.~.!.Q.z.' o./ a f ' Z.Q.E.n.n.] d r NXmXhX$X%XLXZXG 3 % 9.`.S.K.P.S.S.r.5.",
") ` T ) Y K K K K I U h b U k h r J A ! ! R | U.T.^.{.~.x.M a i m m a y y a l.^.Z.z.^ r r DXDXUX.X$XIXPX:.3 % 5.`.P.P.I.I.I.U.e.",
"(.S.@.) Y T Y Y K { K I I U I P E K R W E <.{ } R.J.Q.c.i a z / ' l./ x a y f ' b.m j : @.IXUXgXZ oXPXCXH 0 % K <.[ U U U S h e ",
"0X*X(.y.y.y.+.@.@.Y Y { K K  .{ E E  . .{ r.} b o.C.Z.M a z l.l.l.l.l./ z f f _ ^ g s : y.DXmXj.:.:.$X.XC B 3   * o   o o o o o ",
"VXsX-XOXa.e. .Q @.@.@.r + r ..{ I .. .} } %._ ~ ^ _ ^ p p ' Z.Z.Q.Z.x.' ^ k g ^ k s e r J ! ! ! D :..XG C N 3 , t q 5 5 6 6 - ; ",
"0 0 3 3 & & * *  .0.0.e   r 5...I.0XS.&.#._ ( ~ j U ~ g f ^ / z z x f k ^ U e s s e 1 r n n T T 8.XXXXB C C X : 9 - - 7 6 8 7 5 ",
"H .X.XXX.XV t o 9.5.0.+.E  .5...I.JXfX&X_.A.&.v s h U h s k / / z z ^ k j s w l r : 1 r @.@.@.+.r.e.OXB N H & + 5 ; - 7 8 8 6 ; ",
"oXZXLXLXXX0 9 & p.f.r.w.e.a.i.w.OXSXSXbX2X).'.L e e e r s k _ ] z.b.] b s e w e e @ e { } %.o.q.S.S.U.D H H & + 5 7 6 6 8 8 7 7 ",
" XZXLXPX@X0 0 & 7.a.a.e.i.i.w.7.U.SXSXbXbX2X].&Xe e r r e p g k ^ ~ b g e 1 : : @ : h } o.B.t.V.*.D.*XD |.Z o < - 8 6 6 8 8 6 - ",
" XZXPXLXoXN 0 $ s.P.s.9.<.<.<.w.a.SXJXSXMXlXqX9Xq.s = e e , e U g d e e 1 @ + @ 1 s ) V.V.V.o.C.F.F.P.A N B o < 7 7 7 7 8 7 7 - ",
" X%XZXCX|.B 4 3 d.w.X.K K I { X.f.SXJXSXSX0XU.].>Xo.p > > , , = : : = = = + @ 1 b L ^ _ t.V.t.P.S.F.U.OX0 0 o + ; ; - - - - - - ",
"|.oX%XoXH B 4 3 P.a.5. .@.+.+.+.0.fXbXSXfXr.Y.lX[.J.' f , > : : , : = = @ + > d b _ k , g t.K.U.q.S.0.0XR V e e h S S S h k k k ",
"H H H G B 0 0 & t t w : 1 : @ +   , E 0XsX*X3X[.^.!.n.m.m u 2 h s s e , > > d m m _ b , h X.<.9.*X2X+.0.>.W X.I I R R R I L L K ",
"$ $ $ $ $ X X X X X X X X X % : } &X0X8X8X+XT.7Xn.}.{.!.n.] h r h h s s j b _ o.] _ ^ b ) E P E ;XfX=Xy.5.+... .| | >.| I L K K ",
"& & & & o & % & % * % % : V 1.-X9X:X*X*X*X*XL.T.J.~.~.!.[.J.B.t.o.} _ _ o.b.$.$.o._ ~ j {  .Q P R ..P.*X(.h...9.<.<.2. .{ Y Y Y ",
"8 8 8 6 5 7 5 5 - & ; S OXsX0X*X*X`.I.I.I.U.P.V.C.J.[.,X,X[.[.^.T.J.J.J.Z.C.b.b.&.} ) I  . .Q P P P Y 5.f.P.f.f.9.0.9...+.} ) X.",
"8 8 8 q 8 ; 5 ; q [ +XsXdX*X+X+X*XI.U.P.P.P.a.r.K.V.D.T.>X,X,X[.{.[.^.^.J.J.C.B.o.} X.Y  . .| R W R P E ,.5.e.f.P.r.0.9.0.%.} } ",
"8 8 q ; 7 q q 3.8XsXsX8X+XK.K.I.U.P.f.a.a.a.a.a.t.K.K.L.D.T.T.^.[.^.T.T.D.C.B.%.9.9.9. .<.| ,.W W E E W  . .5.9.f.f.r.r.r.9.%.9.",
"q ; 7 q ; S dXsX8X8X+XOXL.r.t.a.a.a.a.a.a.p.p.p.1.a.P.K.t.C.C.C.C.C.V.V.C.t.9.9.r.e.e.,.2.>.,.>.W W | ,.<. . . .9.0.0.9.r.r.0.0.",
"5 7 ; ; 4.dX8X*XOXU.a.e.e.w.e.K.w.i.a.g.s.p.d.d.7.i.i.i.a.K.K.t.r.t.t.r.r.w.w.w.w.7.6.W ,.;.,.;.,.| W | >.,.,.,.5.<.{ E 9.P.f.0.",
"- - q L.bX8XOXK.a.a.p.a.f.a.<.<.i.i.a.g.d.d.u.u.7.u.i.i.i.a.a.a.a.r.a.a.a.w.w.i.6.2.,.W ,.,.6.,.,.>.| | >.2.<.<.>.5. .I { 9.r.P.",
"o [ dXdX+X+XU.i.1.i.i.w.w.7.w.g.i.i.p.p.d.d.u.u.u.u.d.p.7.<.1.i.w.7.7.i.w.6.1.7.7.,.,.W 6.2.7.,.W >.2.2.<.<.<.8.,.7.<.W R R  .r.",
"S 0XdXU.OXU.w.a.i.i.i.w.i.w.7.w.i.i.i.p.p.d.d.d.d.7.7.p.s.7.2.2.6.2.6.7.7.6.6.7.6.2.1.>.7.<.1.>.W >.2.2.>.>.6.7.i.<.Q |  .R P Q ",
"0X0X*XP.a.f.i.7.w.e.i.p.p.7.7.i.w.e.i.i.i.p.p.w.7.p.s.p.i.i.w.<.2.2.6.2.6.7.6.<.7.6.2.<.w.w.<.| W ;.2.2.2.2.2.2.6.7.>.W >.| W R ",
"0X-X+Xa.e.a.a.e.7.e.i.p.p.7.7.w.w.e.e.e.i.a.i.i.7.i.s.p.i.i.i.7.7.7.7.7.7.i.7.7.w.7.<.<.w.7.2.| >.,.2.1.2.2.1.6.1.6.>.Q 2.>.| R ",
"0X;XU.f.w.p.f.e.7.i.i.p.a.w.7.w.w.e.e.e.e.i.a.i.w.w.p.a.i.i.i.i.e.i.w.w.w.w.w.7.w.7.<.<.w.7.<.| >.,.,.,.,.2.6.6.6.2.,.Q 6.,.>.R ",
"-XU.P.P.a.a.f.7.7.e.i.p.s.w.7.w.w.e.w.w.w.a.a.a.w.w.i.a.a.i.i.a.w.e.w.w.7.w.w.5.w.5.<.<.7.7.<. .>.>.,.,.,.,.6.7.7.2.2.R 6.6.,.Q ",
";Xs.s.U.g.a.g.7.7.i.i.a.s.w.7.i.i.i.w.w.i.i.i.a.w.w.w.i.i.i.i.a.e.i.w.w.w.e.w.7.7.6.6.7.7.7.7.2.>.,.2.,.,.,.6.7.7.2.2.R ,.6.;.W ",
"OXs.a.g.s.g.g.i.e.i.p.a.s.i.7.i.d.i.i.i.i.w.i.i.w.w.w.w.i.a.i.i.i.i.w.7.w.e.w.7.1.6.7.7.w.7.6.2.2.2.2.,.>.>.2.6.7.6.6.Q W 6.Q >.",
"OXs.a.a.s.g.s.a.i.p.a.s.s.i.w.i.p.i.i.p.i.w.i.i.i.i.7.7.i.g.s.i.i.i.i.7.7.7.7.6.1.6.w.u.u.w.7.2.2.6.2.,.>.>.,.2.6.6.6.;.R 6.R ,.",
"s.P.s.a.g.g.s.a.p.a.a.s.s.i.w.d.p.d.p.d.d.7.w.i.i.i.7.7.i.g.g.i.p.p.i.w.w.i.7.7.2.7.u.d.u.u.6.6.7.7.6.6.2.,.2.6.,.6.6.6.R 7.R 2."
};
