/* XPM */
static const char *cnN6X2F1cmxpYw__[] = {
/* columns rows colors chars-per-pixel */
"64 64 249 2 ",
"   c #060202",
".  c #0C0304",
"X  c #0C060A",
"o  c #0D0B0B",
"O  c #06070A",
"+  c #130504",
"@  c #140906",
"#  c #120609",
"$  c #130B0C",
"%  c #1A0D0C",
"&  c #1A0705",
"*  c #14110D",
"=  c #1A110E",
"-  c #0D0D12",
";  c #0C0E1A",
":  c #030615",
">  c #120E13",
",  c #1B0E12",
"<  c #140B16",
"1  c #0E1115",
"2  c #0D121C",
"3  c #131115",
"4  c #1B1214",
"5  c #15131A",
"6  c #1B151A",
"7  c #1D191C",
"8  c #1C1914",
"9  c #250908",
"0  c #24130D",
"q  c #2B150B",
"w  c #33160C",
"e  c #221514",
"r  c #241916",
"t  c #2C1B14",
"y  c #21161B",
"u  c #241B1B",
"i  c #2B1D1C",
"p  c #2B1415",
"a  c #331C13",
"s  c #371C19",
"d  c #270C10",
"f  c #2D221E",
"g  c #33231D",
"h  c #3B251C",
"j  c #382419",
"k  c #020B23",
"l  c #1A1823",
"z  c #0B152B",
"x  c #251C22",
"c  c #351E21",
"v  c #1E232F",
"b  c #2B2325",
"n  c #342522",
"m  c #3D2A23",
"M  c #372828",
"N  c #3E322C",
"B  c #3B3538",
"V  c #362C33",
"C  c #441C1B",
"Z  c #43271D",
"A  c #432C24",
"S  c #4A2D24",
"D  c #462A28",
"F  c #552C2A",
"G  c #44322C",
"H  c #4B342C",
"J  c #49362A",
"K  c #52332C",
"L  c #57372D",
"P  c #443533",
"I  c #4C3433",
"U  c #463A34",
"Y  c #4B3B35",
"T  c #473B3A",
"R  c #4A3D3C",
"E  c #4D3639",
"W  c #533C34",
"Q  c #593935",
"!  c #422E32",
"~  c #643938",
"^  c #60352F",
"/  c #4C413D",
"(  c #4C4136",
")  c #52433C",
"_  c #5B423C",
"`  c #554438",
"'  c #64453D",
"]  c #71463F",
"[  c #30364B",
"{  c #12234D",
"}  c #483E40",
"|  c #563D42",
" . c #703E41",
".. c #3A4B6F",
"X. c #3C4043",
"o. c #4D4242",
"O. c #464546",
"+. c #534441",
"@. c #5B4B44",
"#. c #574947",
"$. c #5C514C",
"%. c #5E5047",
"&. c #5B4D53",
"*. c #5D5353",
"=. c #4C4A57",
"-. c #634C44",
";. c #6B4C44",
":. c #6A4C4A",
">. c #664846",
",. c #774949",
"<. c #66524B",
"1. c #6B534C",
"2. c #665347",
"3. c #74534B",
"4. c #78554C",
"5. c #6C5B54",
"6. c #685757",
"7. c #7C5452",
"8. c #7B5D54",
"9. c #755A58",
"0. c #614F5F",
"q. c #736156",
"w. c #75635B",
"e. c #7A655C",
"r. c #7A695F",
"t. c #7B6356",
"y. c #6D625C",
"u. c #4B5470",
"i. c #685963",
"p. c #7B5E63",
"a. c #6D6364",
"s. c #746561",
"d. c #796561",
"f. c #756A64",
"g. c #7C6B63",
"h. c #7A6E6B",
"j. c #766B6C",
"k. c #7D726D",
"l. c #7B7069",
"z. c #7C7574",
"x. c #716B75",
"c. c #814B4E",
"v. c #8B5B5B",
"b. c #855856",
"n. c #8B5656",
"m. c #83635B",
"M. c #8A645D",
"N. c #81695F",
"B. c #925E61",
"V. c #8F5C61",
"C. c #8C6565",
"Z. c #826D65",
"A. c #8C6B64",
"S. c #826D69",
"D. c #866768",
"F. c #936463",
"G. c #9C6669",
"H. c #926C6A",
"J. c #9D6C6B",
"K. c #956965",
"L. c #82726B",
"P. c #8A756C",
"I. c #8C7A6F",
"U. c #857366",
"Y. c #94726E",
"T. c #99736B",
"R. c #847A75",
"E. c #8D7C73",
"W. c #877878",
"Q. c #9C7473",
"!. c #917D73",
"~. c #9C7B75",
"^. c #9C7A7A",
"/. c #947678",
"(. c #8E6D72",
"). c #A36C6D",
"_. c #A26769",
"`. c #A2736D",
"'. c #A46E71",
"]. c #A47473",
"[. c #A47B75",
"{. c #AC7C7C",
"}. c #A77878",
"|. c #B37D7D",
" X c #B1767C",
".X c #8E827B",
"XX c #93837C",
"oX c #9A857B",
"OX c #AB827D",
"+X c #A3847C",
"@X c #B4827E",
"#X c #A0957F",
"$X c #344E85",
"%X c #3863AE",
"&X c #556692",
"*X c #5D7198",
"=X c #4D7FD4",
"-X c #867E81",
";X c #9E7D83",
":X c #A97C83",
">X c #B57D82",
",X c #B87E84",
"<X c #7A8EAD",
"1X c #6C94DA",
"2X c #9D8C83",
"3X c #968685",
"4X c #9E928A",
"5X c #92878A",
"6X c #A28D84",
"7X c #A98686",
"8X c #B38382",
"9X c #B88887",
"0X c #A4948C",
"qX c #AA968C",
"wX c #AB998F",
"eX c #A69689",
"rX c #B5948C",
"tX c #A69991",
"yX c #AB9B93",
"uX c #AD9D99",
"iX c #A79793",
"pX c #B29D94",
"aX c #B19F98",
"sX c #B89594",
"dX c #AC8B92",
"fX c #B4A29A",
"gX c #B8A49A",
"hX c #919AB0",
"jX c #BBA9A3",
"kX c #BCB1B4",
"lX c #A09EA3",
"zX c #C39491",
"xX c #C1A39A",
"cX c #C4ADA3",
"vX c #CAB6AA",
"bX c #CBBBB7",
"nX c #D1BEB4",
"mX c #DAC6BC",
"MX c #D8C5BA",
"NX c #E0CABF",
"BX c #90A6CF",
"VX c #93B5EF",
"CX c #8099CF",
"ZX c #B4CEFA",
"AX c #A7D2FF",
"SX c #DEC9C2",
"DX c #E2CDC3",
"FX c #EBD5CB",
"GX c #C4E7FF",
/* pixels */
"k.k.k.k.L.L.L.L.L.L.L.L.L.L.L.L.f.R.k.f.R.f.k.R.6.a.a.*.#.<.$.#.*.#.*.s.y.) U / ` l.MXSXFXgXwXNXDX!.9.e.w.w.s.s.5.U T T R T R T ",
".X.X.X.XXXXXXXXXXXXX.X.XXX.X!.!..XR.W.R.R.R..X$.i i f e 4 e e r 4 u i i n U ) ) ) L.MXDXFXpX6XFXDX!.q.e.w.w.e.d.5.E E T R T R T ",
"4X4X4X4X0X0X0XtXyXtXyXyXuXuXuXuXtXyXtXuXuX5.N f u e u e = % = u $ % $ # . = N %.Y g.mXmXmXjXwXDXDX!.q.e.w.w.e.d.5.E E U R T } R ",
"0XtXtXtXtXyXyXuXuXuXuXuXfXfXfXfXfXuXuX2Xf.N n b u 4 4 % @ @ # 4 4 @ @ 4 $ + f #.@.h.bXMXSXgX6XDXDX!.w.r.w.w.e.e.y.R E P R T } } ",
"0X0X0XtXtXyXyXuXaXaXyXaXaXyXyXyXyXfXXXY N N M n e % % # @ 4 % % 4 % @ $ = 4 u u U R.MXnXmXgXoXFXDXoXw.g.e.w.e.e.w.R E P R T R R ",
"0X0X0XtXtXyXuXuXfXfXfXgXgXgXgXfXfX2X@.g ) G % r % # #   @ y 4 , % , % $ % 4 % . % Y uXSXnXeX6XDXDXoXw.g.e.e.s.s.w.R E U R T R R ",
"0X0XtXyXyXyXyXyXyXyXyXaXfXfXfXfX6XJ j G Y g r i 4 # # @ 4 u 6 7 o o $ 4 4 % % 4 #   P cXSXoX!.DXmX!.w.g.d.d.g.g.w.R R T R T R R ",
"0XtXtXyXyXyXyXyXfXfXfXfXfXaXyXyXJ j m m j g i i 4 . # % 3 4 > 7 3 $ o $ % % # . # 4   #.SXcX!.DXmX!.w.g.g.g.g.g.w.R R T R T R R ",
"yXwX0XyXyXaXaXyXwXgXfXaXfXfXwXw.Y h A t j g e i % @ X $ 4 4 $ $ o @ $ $ $ $ $ % , @ @ 0 2XjX6XmXMX!.e.g.r.r.g.g.w./ U R T R T R ",
"0XyXyXyXyXyXaXfXfXaXfXgXjXjXg.W H t 0 + t n r i % @ X @ 4 4 $ $ X . $ 3 3 $ $ $ y u e & G oXXXDXMX!.w.r.r.r.g.g.w./ U R R R T R ",
"0XwXwXyXyXyXyXyXgXpXfXpXfXpX` H m 0 0 & g N i i % # X $ 4 4 > $ X X $ 7 7 > $ % y 4 e @ & L.XXmXMX!.w.r.e.e.g.g.s.) U R R R R R ",
"yXwXwXyXfXgXfXfXyXfXgXgXgXeXj h j t t r g b 4 e % # # , 4 4 4 , $ X $ 7 6 > o > ,   % @ 0 w.oXMXMX!.e.r.r.r.g.g.g.) E R R R R / ",
"wXwXyXwXeXeXeXeXfXgXaXfXpXoXA h Y N f r r r % e 4 @ , 4 4 4 4 = $ . X * 3 o $ 3 % # % + q @.XXmXMX!.e.Z.r.r.g.g.g.+.R R R R R / ",
"eXwX6XI.5.@.@.2.9.g.w.Z.g.2.h A R G t r i b u u e % 4 u 4 4 e % $ . . o $ $ > 4 # u % @ t 5.!.MXMX!.e.Z.g.g.g.g.h.) Y R R R R / ",
"eX6XI.1.A q q a j A 1.I.Z.' A H G n = e u b e 4 , @ e i e e u % * o o o > 3 3 4 @ e = % j XX!.vXnXI.e.Z.Z.Z.Z.Z.g.+.R / R R T R ",
"yXoXZ.-.J j j j j q -.I.P.-.Z G U N r i r i , , # + 4 i e r u 4 $ $ $ $ > > $ @ 4 # p % m 6XI.nXvXP.w.Z.Z.Z.Z.Z.g.+.Y R R R T R ",
"yX6XL.<.m A h a j h J Y 5.K S S m f r g d i c d + + d i 4 4 7 u @ % % # . X @ @ @ + r & 9.yXP.nXnXP.q.g.L.L.S.S.h.@.E / E E R R ",
"yX2XZ.<.h h h h t h 2.h H ;.H H m t n n n p p d & & d i u % @ $ % # # % % @ # # 4 @ + 0 XXaXP.vXnXI.q.g.L.L.L.L.h.@.E / R E / R ",
"yX2XZ.-.A A h j j _ q.q S A.L Z m t t 0 n s n s 9 p s i e @ @ e r & & % e % @ @ = 0 + A jXwXZ.vXnXE.w.g.S.L.L.L.h.#.U ) / R o.R ",
"0X0XL.-.S H h q Y P.2.q L Y.3.L A Q @.W I Q D D 9.D.>.s d 0 9 & s s n ! E P P G G G t H cXqXN.vXnX!.w.Z.L.L.L.L.g.#.U ) +.+.+.R ",
"0X0XS.-.S A A G Z.I.J q S A.~.A.K D.rXH._ Q :.(.;XsX3X:.D A I Q D I +.9.S.P.d.<.9.1.S j wXpXe.vXnXE.e.Z.L.L.L.g.g.+.U ) +.+.+.R ",
"yX4XZ.<.S j H 9.eX-.j a s M.7XOX4.M.sX7X7Xm.9.4.D.^.7XY.4.Q K Q S :.D.e.:._ >.1.:.1._ h !.pXt.cXvXE.e.Z.L.L.S.g.g.+.U ) +.o.+.R ",
"yX0XL.<.S h W e.Z.A a a s 7.[.OXQ.Q.cXOXH.,.7.8. .Q ~ 7.H.F.7.~ 8.:.Q K Q Q K S H >.>.W P.rX8.xXvXE.e.g.L.L.S.g.g.+.E ) o.R o./ ",
"0X0XL.@.S H H _ h h j w s L F.zX@X}.zX].F.H.H.C.b.,.,.7.B.}.{.].b.>.F F ~ >.:.3.Q ;.>.' A.qXt.gXvXI.w.g.g.L.S.g.g.@.E ) R R o.o.",
"0X0XL.<.m W Z.W q j a a w F b.9Xv.@X9X{.J.b.;.Q 9 F b.n.B.'.|.v.,.b.7.~ 9 F L Q 3.m.' Q Y.+X3.gXcXE.q.r.L.L.L.h.g.@.U R / R / o.",
"0XtXL.@.H 8.6X-.q j Z a S M.OX[.].9XzX8X{.J.C.b.~ ,.F.F.G.).}.n.c.F.G.v.~ ,.3.7.M.8.;.;.8.+Xm.wXcX!.q.r.L.L.L.g.g.%.E R / / o.o.",
"tXtXL.-.W e.2X_ s -.` w 1.xXrX[.@X}.zX8X{.].].J.F.G.).).)._.'.V.c.v.).G.v.v.b.M.A.8.' ' 4.+X1.qXcXE.w.r.g.L.L.g.h.%.R R / o.o.o.",
"yX0XP.<.G _ w.A q.yXoXW 3.xX7XOX9XJ.rX9X8X|.|.{.}.'.].'.)._.'.B.c.n.'.J.].K.K.J.M.4.L ' t.oX` wXcX!.w.r.g.L.L.g.k.$.R R / / / / ",
"yX2XP.<.A W 2.h I.aXpXe.S Y.7XsXrXT.9X9X8X8X>X>X>X>X>X'.).G.'.n.c.n.).J.}.].`.J.M.;.Q ' e.I.-.yXjX!.w.r.h.l.L.g.k.%.T R / / / / ",
"yX0XI.-.G 1.Z.H P.yXeXq.q S ' T.9XT.OX9X{.|. X>X>X,X>X).G.G.].v.,.c.J.G.].].`.K.v.3.K Q !.oX<.eXgXE.e.g.h.l.L.h.k.%.U T / R / R ",
"yX0XE.@.H Z.!.Y W g.5.J h a Z A.~.A.T.rX8X9X8X9X,X>X X).G.).{.F.,.c.G.).].].`.F.b.3.Z ;.wXeX<.0XgXE.r.g.g.l.L.h.L.%.U T / / / R ",
"eX2XI.-.Y g.P.A 0 m h q h w K 8.t.t.m.rX@X9X>X>XzX>X X).).].8X).,.,.F.J.J.`.`.F.7.~ H 6XpXXX<.eXfXE.r.g.g.l.L.h.L.%.U U / / / R ",
"eX#XP.2.J q.r.j G 2.2.j Z L S Q P.Z.1.9XOX9X9X@XzX>X XB.,.v.F.,.;.,.M.].`.J.K.v.4.L W aXiXoX<.6XfXL.g.e.e.L.L.g.L.@.G Y / / / / ",
"6X6XU.` Y 5.%.g L.0XoX_ 3.+Xm.' XX5.W ~.rX@X@X|.|.|.>X'.V.G.G.7.,.7.F.J.K.K.K.m.;.H @.fXyXP.` 2XyXE.r.w.L.L.e.L.L.@.U Y ` / / / ",
"rXrXY.:.>.1.H I E.0XP.R 9.iX!.9.6.+.H t.OX@X@X@X9X|.G.,. .F.J.c.F F ~ n.K.T.M.3.>.A ) 3XuX3X<.2X4XL.g.h.h.h.h.h.k.#.U R o./ / / ",
"rXqXY.:.:.:.s A e.Z.<.j U 5.@.P G G H ;.~.[.8X@X).n. .^  .F.].F.,.Q F ^ ] M.M.;.Q 0 % i #.5.%..XtXL.f.h.w.h.L.f.k.$.T R o.o.o.o.",
"iX0XE.-.-.N.Q Z K ;._ j S ' Q H P n n _ ~.[.OX}.c.] ;.v.J.G.B.B.7.7.,.F F 4.m.' A p e   @ u N h.3X.Xf.s.z.R.k.k.k.*.T } o.o.o.o.",
"tXtXE.@.@.oXU.L S Z j _ I.oX<.g i e 0 S 8.~.+X[.3.7.b.v.v.c.c.,.,.3.7.b.b.m.8.` g .     4 4 @ 4 ( $.f.z.z.k.z.k.k.*.R R o.o.o.o.",
"4X4XL.@.J t.t.` j L <.g.f.} 6 .   # % m W A.Y.[.H.OX{.H.v.G.).).G.b.M.H.A.m.;.J e $ 3 3 $   > 4 % 8 / h.j.j.W.j.h.$.R R R R o.o.",
"lXlX-X6.N n G J Y 5.#.n o   - - > . @ R W 8.t.~.Y.~.[.{.].F.n.n.C.Y.Q.m.3.3.` t t 8 5 6 5 6 b $ x 3 o } z.W.R.h.j.$.R R R / / / ",
"u.u.[ { l l > 6 V u @ X $ - - - > X   6.9.A t.A.m.H.7X7X].v.,.~ A.^.Y.3.Q K j 0 N $ o 3 - 3 5 6 , 6 4 < #.5XR.k.l.%.Y Y Y ( ` ` ",
"{ $X&X&Xu.x.=.V 7 > X o $ > - - o 4 . Y 6XS L b.' 8.Q.7X[.H.b.,.C.D.8.' S w q g / =   O O - 3 6 x y X < y j.W.h.k.%.U U ( ` ` ` ",
"$X1XZXZXBXhXu.2 X X X $ % $ @ @ $ o   U 0X8.K S Q >.3.8.C.H.C.C.m.3._ S w 9 a ` +.=   O > 5 > > 6 , > y . *.5Xk.k.%.U U U ( ( ( ",
"..*XhX<Xu.u.v : O o $ $ @ o @ $ $ .   G ^.7XM.C s C Q >.:.>.>.:.:.@.A 9 9 q J 1.@.r . $ 7 l > X 6 < 7 4 X V -Xj.h.*.o./ U U / / ",
"O.[ B O.O.=.f O o - 1 o O : ; 5 o % . a 6X+XOXb.C d 9 c I I H I m n q & w K ' 4.<.n @ @ 5 7 3 3 7 > 6 X > 7 z.W.z.*.O.O.O.O.O.O.",
"+.#.$.6.$./ 8   o o O O O ; l l o # . _ qX[.}.8XC.Q d 9 0 e p t @ & 9 a Q 3.8.8.1.G e # $ 6 3 3 3 3 o - 5 7 *.x.x.=.[ B [ [ [ [ ",
"0.0.0.*.a.#.x 3 X O     o 4 7 7 $   i !.+X7X}.|.:XQ.9.| c & @ e i n H >.m.M.m.m.1.I i # $ 4 > > 3 3 o 3 o - x b 2 : : : : : : : ",
"0.i.i.i.x.=.x 6 X X X X 3 y y 4 @ @ 6.6X^.{.8X8X{.{.}.Y.S.s.6.@.-.w.Z.D.A.A.M.m.1.W i . . 4 3 3 3 o o 5 1 1 l ; v [ ..u.....u.&X",
"&.&.&.#.&.o.V 6 6 > X X $ 4 7 7 % % h./.^.9X{.9X|.{.{.].~.~.^./.Q.Y.C.A.Q.H.m.e.1.E % . 3 3 - 5 > > 3 3 3 - ; k [ <XBXVXVX1X1XVX",
"j.i.6.&.&.} M x 6 4 > $ > 3 5 6 4 + <.7X^.7X8X@X9X8X@X{.OXOX^.Y.Q.}.].Q.Q.H.D.D.6.M # # 3 5 1 - > > > > - - 2 z { *XZXGXGX1X%X=X",
"5XW.j.j.i.T x y 6 6 6 3 3 > 3 6 4 # ! ^./.Q.8X9X8X8X|.{.8X8X8X{.}.].Q.Q.Y.Y.D.9.#.r # 4 3 3 3 - 3 > > > - - 2 2 k z &XBXZX1X$X%X",
"uX5X-XW.j.#.b u 6 7 7 6 5 3 3 4 > 4 e 6./.^.[.9X8X9X9X,X{.{.{.{.}.[.[.Q.H.H.D.6.c % > 6 5 > > 3 > 3 3 3 3 3 - - 2 : k k [ ..$X&X",
"kXlX5X5X5Xa.V $ 6 6 6 6 6 6 5 5 5 > % M S.^.^.:X:X9X9X9X,X>X>X{.}.Q.Q.^./.(.6.P % 4 4 3 5 > - 5 1 1 3 3 * - o o - - 5 ; z k z [ ",
"bXbXjXW.&.V u 6 6 4 3 4 6 7 6 5 l - 6 4 E d.;XdXdX8X>X>X9X9X>X:X:X^.^./.S.6.M @ > 7 3 o 5 5 - 5 5 1 - o o o $ * . 7 3 > 3 5 l ; ",
"kXiX6.V x u 6 4 4 3 > 3 5 6 5 5 7 5 7 > 4 ! 9./.7X7X7X7X:X:X:XQ.^.;X/.9.E i , 4 3 5 - - > 5 > > 1 1 - o o $ * * * .   3 4 o > 6 ",
"B B b u x 7 6 7 3 3 > > 3 3 5 5 3 l o > , , d ! 6.(.7XdXdX7X;X;X/.p.E i 4 % o 3 3 O 1 7 > > < < - - - o * * * $ = $ $ % $ 3 3 $ ",
"V b x 7 6 6 6 4 3 > > > > 3 5 5 3 3 3 3 > > , , % c | s.W.W.j.6.M i , , 4 6 3 - 1 1 - - - > < > - - - 1 > > $ 3 * $ $ $ > > > > ",
"b x 7 6 4 4 3 3 3 > > > 3 3 3 3 5 5 3 3 > > , 4 % % > 4 y 6 , # y , $ % > > - - - - - - - > < > - - > > > > > > 3 > 3 5 3 - - 5 ",
"u 6 3 > 3 3 3 > 3 3 3 3 5 5 3 > 3 3 3 > > > > 3 6 3 > $ - > 3 > , < < > > - - - - - - - > > > > > - > - > > 3 3 > - - 3 5 ; ; ; ",
"7 6 3 > 3 3 3 > 3 3 3 3 5 3 3 > 3 3 3 > > > > 3 > > 3 5 5 3 3 3 > 3 3 3 3 3 > 1 - - - 3 > 3 3 3 > > > > > 5 5 5 - 3 3 - ; 5 5 ; ",
"6 6 3 3 3 3 3 > > > 3 3 5 5 3 > 3 3 3 > > - > 3 5 5 5 5 5 3 3 3 5 3 3 > 3 3 - - - - 3 3 3 3 3 > > > - - > > 3 3 3 5 l 5 - ; 2 5 ",
"6 3 3 > 3 3 > > > > 3 3 5 5 5 3 5 3 3 3 - - > 3 - - > > > 3 3 3 3 1 - - > 3 3 - > > > > > > > - - > > > - - > 3 3 - X > 5 > - 5 ",
"5 3 > > > 3 > - > > > 3 5 5 5 5 3 3 3 3 - - > 3 3 3 3 6 6 4 , > 3 1 1 1 3 3 3 - > > > > > > 3 - - 3 3 3 o - > 3 > 6 6 6 3 > > % ",
"3 3 > > 3 3 3 > > > > 3 5 5 5 5 5 5 3 3 - - > 3 3 > > > 4 4 , > > 2 5 1 1 3 > o > > > > 3 3 3 3 o 3 5 5 3 o > 3 > B #.b X # 4 % "
};
