/* XPM */
static const char *cnN6X3BsYW5nbG9p[] = {
/* columns rows colors chars-per-pixel */
"64 64 238 2 ",
"   c #0C0403",
".  c #0D0B0B",
"X  c #0A0604",
"o  c #130502",
"O  c #140905",
"+  c #1B0B06",
"@  c #140C0A",
"#  c #1B0E0B",
"$  c #1C0401",
"%  c #1C110C",
"&  c #17130D",
"*  c #1C1412",
"=  c #151312",
"-  c #0E0E10",
";  c #220D09",
":  c #24130E",
">  c #2A170C",
",  c #36150A",
"<  c #221614",
"1  c #241915",
"2  c #2B1B15",
"3  c #241C1A",
"4  c #2A1E1B",
"5  c #281613",
"6  c #331D15",
"7  c #3B1D14",
"8  c #340A00",
"9  c #2B221D",
"0  c #24241A",
"q  c #3B241B",
"w  c #35221A",
"e  c #2D2423",
"r  c #2D2A23",
"t  c #312623",
"y  c #332925",
"u  c #3B2B25",
"i  c #352C2A",
"p  c #392E2B",
"a  c #362725",
"s  c #37302A",
"d  c #3B322D",
"f  c #3C382F",
"g  c #352E30",
"h  c #382D31",
"j  c #373232",
"k  c #3C3432",
"l  c #3D3935",
"z  c #3D3639",
"x  c #3E393A",
"c  c #461D13",
"v  c #42190E",
"b  c #47261B",
"n  c #56291C",
"m  c #452B23",
"M  c #4A2C23",
"N  c #452E29",
"B  c #532D23",
"V  c #5C2C23",
"C  c #42352C",
"Z  c #4B322C",
"A  c #42392F",
"S  c #4A3326",
"D  c #54342A",
"F  c #5B342A",
"G  c #57362A",
"H  c #423632",
"J  c #453A33",
"K  c #4A3C35",
"L  c #443C3B",
"P  c #4A3E3A",
"I  c #453636",
"U  c #523D35",
"Y  c #5B3D34",
"T  c #583A35",
"R  c #61332C",
"E  c #66392B",
"W  c #633D33",
"Q  c #683C36",
"!  c #4B413D",
"~  c #48403A",
"^  c #53443C",
"/  c #5B443C",
"(  c #584439",
")  c #6C4234",
"_  c #6C463B",
"`  c #65453A",
"'  c #744335",
"]  c #72453B",
"[  c #754A3C",
"{  c #7B493A",
"}  c #453E41",
"|  c #483F40",
" . c #474141",
".. c #4C4443",
"X. c #4B4648",
"o. c #4E494B",
"O. c #4D4945",
"+. c #524642",
"@. c #534945",
"#. c #5B4B44",
"$. c #544C4B",
"%. c #5A4E4B",
"&. c #5C514C",
"*. c #5A534B",
"=. c #534E51",
"-. c #594F51",
";. c #565154",
":. c #5B5352",
">. c #5C5759",
",. c #624D45",
"<. c #6C4B42",
"1. c #734D44",
"2. c #784B45",
"3. c #63544C",
"4. c #69544A",
"5. c #7C5345",
"6. c #7C544A",
"7. c #765448",
"8. c #625753",
"9. c #635955",
"0. c #6C5B54",
"q. c #645C5B",
"w. c #6A5E5A",
"e. c #6B5752",
"r. c #725E55",
"t. c #7A5B53",
"y. c #6B615D",
"u. c #74635B",
"i. c #79665C",
"p. c #7C695D",
"a. c #766256",
"s. c #625E61",
"d. c #696366",
"f. c #716462",
"g. c #756964",
"h. c #7C6B62",
"j. c #736C6B",
"k. c #7E6E6A",
"l. c #7C716D",
"z. c #7E7067",
"x. c #7C7373",
"c. c #797478",
"v. c #716C71",
"b. c #5E5960",
"n. c #824C3C",
"m. c #864B39",
"M. c #88513F",
"N. c #90533E",
"B. c #825344",
"V. c #83554A",
"C. c #845A4C",
"Z. c #8C5A4B",
"A. c #8B5745",
"S. c #935A4A",
"D. c #855A53",
"F. c #895749",
"G. c #876559",
"H. c #966456",
"J. c #98644F",
"K. c #826D63",
"L. c #8B6B64",
"P. c #83736B",
"I. c #8D796C",
"U. c #867467",
"Y. c #94776B",
"T. c #847B7B",
"R. c #877974",
"E. c #977E75",
"W. c #966E64",
"Q. c #A16253",
"!. c #8D817D",
"~. c #93837C",
"^. c #9A867C",
"/. c #9D897E",
"(. c #988475",
"). c #A2897D",
"_. c #857E81",
"`. c #8D8382",
"'. c #898385",
"]. c #928684",
"[. c #938886",
"{. c #9B8B83",
"}. c #958B8C",
"|. c #9A8D8B",
" X c #918788",
".X c #9D918D",
"XX c #998F91",
"oX c #968D91",
"OX c #9C9294",
"+X c #9B9497",
"@X c #A28D83",
"#X c #A18F8B",
"$X c #A59186",
"%X c #A3928C",
"&X c #AB968C",
"*X c #AB978B",
"=X c #A29594",
"-X c #A39995",
";X c #AC9A94",
":X c #A1969A",
">X c #A59B9B",
",X c #AA9E9D",
"<X c #AA9691",
"1X c #B19C95",
"2X c #B29F9C",
"3X c #B0988C",
"4X c #ADA19E",
"5X c #A7A09A",
"6X c #B3A39C",
"7X c #BBA59B",
"8X c #A99EA1",
"9X c #A69AA0",
"0X c #ADA2A3",
"qX c #ACA3A7",
"wX c #B2A5A5",
"eX c #B4A8A6",
"rX c #B2A7AA",
"tX c #B5AAAA",
"yX c #BAACAC",
"uX c #BAAAA4",
"iX c #BAB0AD",
"pX c #BEB1B1",
"aX c #C2AC9E",
"sX c #C2AEA6",
"dX c #C9B5A8",
"fX c #D1BDAE",
"gX c #CABAB3",
"hX c #D9C6B9",
"jX c #D1C0B0",
"kX c #E2CCBD",
"lX c #E5D0BF",
"zX c #DCCBC2",
"xX c #CEC6C4",
"cX c #E4D2C4",
"vX c #EAD7CA",
"bX c #E9D7CA",
"nX c #F6E5DA",
"mX c #FFF6EB",
/* pixels */
"L L L L L L L L ! L L L L L L L I I I L L L L L L L z k z z z k k j j j k k j j j g j j g z z g i i j j g g z  .s.v.c.c.d.d.d.d.",
"L L L L L L L L ! L L L L L L L L L L L L L L L L L L L L L L x l k k k k k k k x k z z z L z g g i j x X.>.d.c.c.c.v.d.s.b.>.;.",
"! ! ! ! ! ! ! ! ..! ! L ! ! ! L L L L L L L L L L L L L L L L L k l l l k k k k z x z L | L j g L X.;.s.d.c.c.c.d.d.>.;.;.=.=.=.",
"......................! ......! L L L L L L L L L L L L L L L L l l l l z k k x x L L L | L z } -.d.c.T.c.v.d.>.;.=.=.=.o.X.X.o.",
"................................! ! ! ! ! L L L | | L L L L | | L L L L L L L L L ..| | | L L -.c.'._.v.s.>.;.$.-.$.$.$.X.| |  .",
"@...............O.......................! ! ! L | | | | | | |  .L !  .! L L  .....X.$.$...L | -._.c.d.;.=.-.;.=.-.o.X.X. . .} L ",
"@.@...........................................! P P | | ........ . . . . ... .o.$.$.:.q.$.L L ..$.o.o.$.;.;.;.=......... ... .L ",
"@.@.@...........@.........@.@................................... .X.o.o...o.$.;.:.:.d.j.q...L L x } =.>.=. .k j L  .$.O..... .L ",
"! ! ........................+.+.@.........! P ..P P ..+.+...L L k ! $.:.$.$.$.>.:.d.j.j.q.$...| z z x } x g g k ..$.$...O.$.$.$.",
"k I P ..$.&.:.8.9.9.9.8.8.:.&.&.%.$.$.$.$.@.@.$.:.@.L k p e e 4 * * e x $.:.;.:.:.:.:.:.:.%...L X.} x L | L x k o.:.-. . .L l k ",
"H I L ..@.%.:.:.q.w.y.f.f.y.y.w.9.9.8.:.8.9.9.8.$.L i 4 < * @ @ * . X & 1 i  .q.q.q.9.:.:.:.9.q.q.q.:.X.L L ..$.k L I k d p i i ",
"e e e t t y y y y i p d k k k k H L I H I P L I i e 1 * * # @ @ @ . . @ X X 3 L j.j.g.d.q.f.l.T.x.y.X...q.j.q...L L L k l L L ! ",
"p p p p p p p p i i i y y y y y 9 e e e e y t 4 3 < * * * @ @ @ X X . @ @ X . * ..L k k L ......k $.y.q.&.! k e e e e 3 4 4 3 e ",
"d d d d d d k k k k k d d p p p p d k k k k i e 1 < * * # @ @ @ @ . X . . X . @ & * * 1 1 3 3 3 I ! L y * * 1 9 * 1 * * 1 1 * 3 ",
"k k k k k k k k d d k k k k k k d d k H k i 4 < < % # # # @ @ @ X . @ @ @ . . . & 3 y p i t y s 9 r y y i i e 9 4 e e e i i y i ",
"I H H k k k k k d d k H H k d d H d d I H t < # * # @ @ # # O o O @ @ X X @ @ @ X & 3 t i i t e i y t t i i y e i i e e y e e y ",
"K H C A H d d d J J J H C C C C J p C H a 4 2 < < # + + + ; : 5 + : : + O O O O @ X * i p i h t i t t t y y i d y y i y e 3 e i ",
"~ K K K K K J K K K K K J J J J J H H C a 9 w w w 2 2 w m M m b q q q w 2 : : # @ @ * p p e g k i a i d k d a e d i e 9 4 t k ..",
"~ ~ ! ^ @.@.@.%.8.8.8.8.8.8.8.8.%.*.+.C u w a u S M M G ` ` ` W G G G S b q 2 : # o * L :.o...L H H d d s d d p k H L ..$.%.:.8.",
"..+.@.$.$.$.%.%.%.%.%.&.:.:.:.:.:.9.$.k p u u S Y Y ` _ _ ' ' { ) ) Q F D M q 2 5 O # ~ q.:.O.L J L I p i d L ! ..@.&.9.9.:.$...",
"....O...! L L L ..! ! .......... .o.! k H K K T ` _ { { { { m.m.n.n.{ Q E G M q 6 : + 9 s 0 r d P ! ..+.@.%.%.%.8.&.@.! L I k d ",
":.:.:.:.:.:.:.$.-.$.$.$.$.$.$.$. .o...L P ^ / ` 1.[ { n.A.S.N.M.M.M.n.' E F B b 6 > + * * & 0 l ..! +.%.8.:.%.+.L L I d p p d d ",
":.>.9.9.q.q.q.q.....P P ! ! ! ! .. .@.+.^ #.4.1.1.] ' { A.A.N.m.m.M.n.' E F B M q 6 % 9 f f ~ O.%.#.&.&.%.L H I y d k k k d p i ",
"d k k k k I k d d p i i d d k d d d L P K ,.t.G.1.] ' ' ' { n.n.m.m.n.' E F D M S u 2 u @.%.*.:.y.g.R.R.9.H d P :.:.%.! k i p d ",
"s s s s s s s s d d k k k k H H H L a K U r.G.G.G.1.) V.5.V.{ B.n.B.B.{ W G b b q K 2 a 0.f.l.T.{.{.R.~.P.+.e.w.f.w.9.P L H k k ",
"d d d d d d d d s d H H K K K K C ! K U U K.Y.Y.1.B n c F Q 6.H.J.H.V.E n 7 6 7 6 a u +.R.%XOX,X{.{.P.~.P.g.0.0.y.q.w.! I k k k ",
"d d d d d A A A d C J K ~ ~ ! ! K / #.( U Y.Y.G.W _ _ _ Q <.<.G.G.G.5.G ` ` 4.,.U N N N #.P.k.h.i.u.^ r.,.i.3.3.9.9.y.+.J d k k ",
"A A A H K K K K K K ! ! ! ^ ^ / #./ ,./ Y E.W.7.7.G.D.2.<.1.1.L.H.5.) G <.Y / Z N Z Z 6 Z #XsX1X@X^.0.~.i.i.0.u.0.w.u.+.J H H k ",
"~ ~ ! ! ! ! ! ! ^ / / +.+.#.#.#.#.( 4.4.<.).G.1.) V R 8 Q F 2.6.G.E B W 7.7 7 m 7 Z D q m &XhX7XaX7XK.sX&X0.0.0.r.w.u.! J J J C ",
"P K P ~ ~ ~ ! ! ^ ^ +.^ +.#.#.,.#./ 4.a.7.Y.G.5.) E ' n V.2.6.2.V.E B Q 6.W ` Y m U D N b ).hXaXdX7XK.fXsX0.i.a.u.r.0.K J J J C ",
"I J J K K K K K ^ ^ +.+.+.+.#.#.#.,.,.a.6.H.G.C.n.B.Z.B.n.B.{ B.F.B.V V ] [ 1.D ` D D M q ).dXaXfXaXI.fXaXr.i.a.u.u.r.K C J K J ",
"J J K K P P ! ! +.+.#.#.#.#.#.#.,.4./ t.t.W.H.Z.J.A.J.A.A.F.Z.Z.B.2.n R ' _ 7.1.<.G Y m b 3XdXaXsXsX).kXsXK.h.i.u.u.u.^ J J K K ",
"K K K K K K K K ! P %.#.+.&.%.%.,.,.m t.t.W.W.F.J.S.S.A.S.J.C.5.2.] n n { V.] ) ) F G b S 7XaX$XbXmXnXnXnX{.u.i.i.i.u.U K J J J ",
"^ ^ ^ ^ ! ! ! ! @.+.3.%.#.&.#.3.a.S q 4.t.D.D.H.S.S.Q.J.S.Z.[ [ V.D.) n E V.V.[ W F T , e.fX7XfXmXmXmXmXmX;XK.p.i.i.u.U K J J J ",
"K K K ! ! ! ^ ! ^ ^ #.#.3.e.#.3.,.> q ,.L.L.G.V.F.S.Q.J.S.Z.{ 2.H.H.] n R { 2.5.W W M D 1XfXhXcXzXzXhXnXbXI.a.u.i.i.u.( K J J K ",
"^ ^ / +.#.#.&.&.&.3.3.3.e.3.3.e.&.> w 6 / t.Y.V.F.A.J.S.S.H.B.[ 2.] F n F ) ] 1.W D Y E.dX7XdXhXbXhXdXnXzXU.i.h.i.i.i.^ K K J K ",
"+.#.#.#.&.3.3.3.e.u.u.r.0.r.h.P.( 2 2 o : 6 G.D.[ B.Z.n.{ B.] W F R V c c B F F ` 7 / 4.( ,.p.cXnXhX;XbXhXU.i.a.i.i.i.^ K K J K ",
"g.g.h.h.h.h.h.h.h.i.u.h.K.P.K.3.C O + : 5 $ / G._ 5.B.E n R R R R R V n v , b B Z D / ,.Z ( 0.cXnXhX*XnXcXU.h.i.i.i.i.^ K K J K ",
"P.P.R.R.I.I.I.I.^.E.I.~.~.~.K.C u o % 2 : o C G.1.1.5.E n V R ] Q R R R b c B ` m T 6 ^ / / h.hXbXhX<XnXcXp.a.i.i.h.i.^ K K J K ",
"!.~.~.~.^./././././.$X*X@X&X<Xi.2 % p 4     : ,.1.1.C.V.2.] Q 2.D.D.6.W B D Y T Z q : U #.#.u.hXcXhX{.vXcXK.p.i.i.i.i.^ K K K K ",
"!.~.~.~./.{.@X@X$X@X@X/.1X&X1Xr.: a 4 % #   : ( ` 1.1.[ 5.C.2.Q Q R F B n D Y Z u N + P 3.#.u.fXvXjX).vXcXI.a.i.u.i.h./ K J P P ",
"~.~.~.~.{.^.^.@X).@X*X$X&X$X1X0.+ 2 1 % O   + C S ` 1.5.5.V.V.V.1.Q F W W Y Z q 5 w < p 3.#.a.jXhXfX(.vXcXI.i.p.i.i.h./ K J P P ",
"`.`.[..X%X@X@X$X*X^.$X3X1X$X6XK.+ % < # % % : K q b n B W 1.t.D.D.V.1._ ` D 6 ; ; + t K e.4.u.dXhXfX(.vXlXI.p.K.p.i.h./ K J P P ",
"j.j.g.g.h.R././.).*X*X^.&X6X$X/ 5 O % O O % ; K Y b , , b W 1.t.D.D.7.` D q 5 6 2   ^ u.#./ p.fXcXfX/.vXkXI.G.K.h.p.h./ K K P P ",
"O O o o w r.@X&X/.3X*X$X1XE.^ + a % % O # O $ Z <.W n v , 7 B W W _ Y M w > > u ^   2 e.,.0.i.dXcXjX(.cXhXU.i.G.h.p.h./ K K P P ",
"@ @ O   1 u.$X@X*X).$X7X<X/ + % 2 % @ O < + $ Y <.[ _ F b , , 7 c b 7 , > > w a 9 O + +.3.,.0.hXkXfX(.lXhXI.p.p.p.i.h./ K J P J ",
"@ @ % O 9 u.$X@X$X*X1X^.3.u 5 2 + 1 O   ; $ ; / 7.6.6.5._ Y S b b 7 , , w N C u 2 4 o u 0.4.a.fXkXfX(.lXhXY.G.p.p.p.h.#.K J P K ",
". . @ o 1 0.$X&X$X&X;Xh.6 + : + u ! 4 O : $ ; Y 1.6.C.C.V.5.7.[ 5._ ` D S Z C 2 P L # 2 #.#.U.sXlXfXE.kXhXI.p.i.p.h.P.#.! K P K ",
"- - . X 3 y..X$X@X1X%X,.w : 2 9.|.].4   5 ; $ ( 6.C.Z.B.F.S.A.n.B.) E B B Y C u f.+.3 * J w.h.gXvXfXE.jXhXU.p.h.K.h.P.#.A ^ K K ",
". = . X 1 9.|.<X;X^.uXE.u K R.=X,X.Xf.I ; N 4.` <.5.Z.J.A.A.A.A.n.' R n G M N e.T.%.p o 2 f.f.=XdXuX^.hXhXI.h.P.P.h.P.&.K ! J K ",
". - . X 1 y.-X%X<X%XzXzX,X;X8X=X|.,XtX4XR.~.;X@XE.G.6.5.V.Z.F.B.5.E E _ G M e.E.k.g.k @ % I f.#.u.P.K.;X6XR.h.h.P.h.P.3.K K J K ",
"= X . @ 3 9.%X<XdXsX7X;XyXuX|.].|.OX].-XgXgXuXdX7X3XE.L.G.C.C.Z.C.6.` D m r.%XR.R.}.%.t i @ g.g.0.k.k.k.P.P.P.P.P.z.P.3.K K K K ",
"X = * X   8.6XuX6X6X;X<X2XwX,X4XOX.X}.!.`.{.;X6XsXsX7X*X).E.G.7.7.7.Y ` U.{.%XT.l.`. Xg.g.d t P.w.P.[.[.|.].R.l.l.P.h.&.J K ! K ",
"@ = X * l.4X-X;X%X<X;X%X|.=X0XtXtX4XeX>X-X-XOX|..X%X|.#X1XsX6X@XL.t.i.#X6X.X|.-XT.`.!.y.j.g.O P x.j.T.!.}.].].|.R.R.l.3.K K ^ ! ",
"= . q.iXtX>X4X%X-XuXuXwXwX;X|.|.>X4XgXtXiX5X-XyX>XwX4X.X|.=X4XwX1X<X2X%X!.|.>X>Xx.T.j.l.`.}...t _.x.`. XOX`.'.`.].!.T.g.&.! ^ ! ",
"* +XxX>X>XyXwX4X{.%X;XuXyXyXtX,X.X[.>X-XeXiXtX,XeXeX0X>X>X>X8X,X;X<X#X].=X=X XqX'.d.j.'.OX`.}.T.}. X}.`.}. XOX].}.[.[.].g.+.! P ",
"0XtXwX>X>X,X4XuX6X|.[.,XyXtXeXpXeX0X>X=X=X>X0XeXtXeXtX8XqX}.rXqX0X,X>XOX-XOX X0X Xj.'.}.|.|.OX|.oXoX+X+X}.}.|.}. X X|.`.T.g.P ! ",
"tXyXtX4X>X>X,X6XtX,X.X|.>XeXyXeXyXyXeXwX4X,X,X>XeX0XrX8XqXoXrXrX0X,X>XOX>XOX}.0X+Xc.}.OX|.XXOX|.XXoX+X+XoXoXOX|.|.|.=X}.].x.#.! ",
"tXeXeXeX0X4X0X0XtXyX0X.X|.,XtXeXtXyXyXyXyXeXwX8XeX8XtXqXrXoXqXtXeX0X,X:X>X>XXX0X>Xc.oXOXOXOXOXXX+X+X+X+XOXOX:XOXXXOX>XOX}.`.w.! ",
"tX0XeXiXeX0XeXwX0XtXiXeX-XOX,XtXeXtXyXyXyXyXyXyXyXeXyXtXrXoX:XtXtX0X0X>X0X8X:X0X>XT.|.OXOXOX=XOXOXOX:X+XOX:X:XOXXXOX>X=X}.}.x.+.",
"yXwXtXgXtX,X0X0X,XeXyXpXeX=X=X0XtXtXtXtXtXtXtXyXyXeXyXtXtXOXOXtXtX0X0X,X8X0X>X8X0XT.}.OXOX+X:XOXOXOX:XOXOX>X>XOX|.>X>X>X|.|. X:.",
"tXwXeXyXtXeXeXeX0X0XeXtXyXeX,X=XeXeXtXtXtXtXtXeXtXeXtXeXrX=XXXtXeXwXwX8X,X0X,X>XrXT.|.OX:X:X:XOXOXOX:X=XOX>X:X}.XX0X,X0XXX XOXx.",
"eXwXwXeXpXyXeXtXrXqX0XeXyXyXeX>X,X0XqXtXtXtXtXtXeXeXeXeXeX>X|.tXeXwXeX8X,X0X,X,XtXT.XX:X9X9X>X:X=X=X-X=X=X>X=X XOXeX8X0XoX'.8XoX",
"tXtX,XwXpXpXeX0XrX0X0XyXpXtXeXtX>X0X0XqXtXtXtXtXtXtXtXeXeX,X|.eXeXwXtXwX,XeX0X,XtXT.}.:X9X9X9X:X=X=X-X=X=X>X=X`.OXtX8X0XoX_.0X8X"
};
