/* XPM */
static const char *cnN6X3RyYWNjdXJ0[] = {
/* columns rows colors chars-per-pixel */
"64 64 248 2 ",
"   c #0C0402",
".  c #0D0D0D",
"X  c #090706",
"o  c #140102",
"O  c #110D0B",
"+  c #190709",
"@  c #0C0515",
"#  c #170618",
"$  c #0F110E",
"%  c #2A081A",
"&  c #251918",
"*  c #371C13",
"=  c #2C0F0B",
"-  c #2C231D",
";  c #3A2419",
":  c #180823",
">  c #1B0C37",
",  c #2B0A22",
"<  c #330426",
"1  c #330B25",
"2  c #36072B",
"3  c #331626",
"4  c #29182F",
"5  c #372A26",
"6  c #3B312C",
"7  c #382733",
"8  c #332634",
"9  c #46281C",
"0  c #562F1D",
"q  c #4A2C22",
"w  c #452B23",
"e  c #562D25",
"r  c #4C342C",
"t  c #49372C",
"y  c #52352B",
"u  c #57362A",
"i  c #473A34",
"p  c #4B3B34",
"a  c #4A3D39",
"s  c #463733",
"d  c #523D34",
"f  c #5C3C33",
"g  c #533D38",
"h  c #482A39",
"j  c #6A3B2C",
"k  c #64382A",
"l  c #643C32",
"z  c #6A3C33",
"x  c #6A342E",
"c  c #471E12",
"v  c #4D433B",
"b  c #54443C",
"n  c #5B463E",
"m  c #594639",
"M  c #6B4235",
"N  c #63433A",
"B  c #67463A",
"V  c #744A3C",
"C  c #7B4C3D",
"Z  c #744537",
"A  c #2C1C49",
"S  c #372651",
"D  c #4A3343",
"F  c #4F374E",
"G  c #523C63",
"H  c #554A43",
"J  c #5B4B44",
"K  c #574747",
"L  c #5E524B",
"P  c #5C5046",
"I  c #5D5652",
"U  c #56474D",
"Y  c #634D43",
"T  c #694D46",
"R  c #744D44",
"E  c #7C4C44",
"W  c #625145",
"Q  c #6B5345",
"!  c #62524B",
"~  c #6B544C",
"^  c #69584D",
"/  c #7C5243",
"(  c #76574B",
")  c #645551",
"_  c #6C5C53",
"`  c #675957",
"'  c #725E55",
"]  c #785D57",
"[  c #624B51",
"{  c #6C615D",
"}  c #6D6057",
"|  c #7A6356",
" . c #74645B",
".. c #7A665C",
"X. c #7D695D",
"o. c #756358",
"O. c #7E614F",
"+. c #554372",
"@. c #6C5965",
"#. c #6D6364",
"$. c #7D6B62",
"%. c #7C6B6A",
"&. c #756766",
"*. c #7E716A",
"=. c #796A76",
"-. c #7E7473",
";. c #834E3F",
":. c #854E46",
">. c #845444",
",. c #83554A",
"<. c #855B4B",
"1. c #8B5B4C",
"2. c #8B5548",
"3. c #945C4D",
"4. c #93524B",
"5. c #885C52",
"6. c #935C53",
"7. c #995953",
"8. c #A45A54",
"9. c #95624E",
"0. c #8D6253",
"q. c #816B5E",
"w. c #89655A",
"e. c #936354",
"r. c #9D6454",
"t. c #9C655A",
"y. c #9B6B5C",
"u. c #956659",
"i. c #966956",
"p. c #A2655A",
"a. c #A36C5C",
"s. c #A56959",
"d. c #A1715D",
"f. c #826E63",
"g. c #846C68",
"h. c #976D62",
"j. c #847265",
"k. c #83746C",
"l. c #8A756A",
"z. c #8B7A6D",
"x. c #8A7567",
"c. c #987568",
"v. c #847373",
"b. c #8C7B72",
"n. c #897879",
"m. c #917D72",
"M. c #987C78",
"N. c #846E76",
"B. c #A76D62",
"V. c #A57364",
"C. c #AB7263",
"Z. c #A7796B",
"A. c #B27466",
"S. c #AE7A6D",
"D. c #8E8177",
"F. c #938174",
"G. c #9B8475",
"H. c #94847A",
"J. c #9A867B",
"K. c #9C8A7D",
"L. c #96897C",
"P. c #A28C7D",
"I. c #A78679",
"U. c #B78273",
"Y. c #B18A72",
"T. c #C1907F",
"R. c #7E6E85",
"E. c #8D7D84",
"W. c #987F89",
"Q. c #8E78B8",
"!. c #938384",
"~. c #9C8C82",
"^. c #9C8B8C",
"/. c #968887",
"(. c #9D9389",
"). c #9A8A94",
"_. c #8E8080",
"`. c #A28D84",
"'. c #A18D8C",
"]. c #A98B84",
"[. c #A49285",
"{. c #AA9486",
"}. c #A5938B",
"|. c #AB968B",
" X c #A6988E",
".X c #AD9A8D",
"XX c #AD9887",
"oX c #B29C8E",
"OX c #B69689",
"+X c #A49394",
"@X c #AA9594",
"#X c #AD9D91",
"$X c #AC9B9C",
"%X c #A79798",
"&X c #B39D91",
"*X c #B19D9D",
"=X c #B49893",
"-X c #A28E95",
";X c #B5A294",
":X c #BAA395",
">X c #B6A59A",
",X c #BBA59A",
"<X c #BDA99B",
"1X c #B2A091",
"2X c #AE9AA1",
"3X c #B29DA3",
"4X c #B4A2A3",
"5X c #BAA5A5",
"6X c #BDAAAB",
"7X c #BAA7A8",
"8X c #B8A9AE",
"9X c #9A8BAB",
"0X c #C29B8D",
"qX c #C2AB9D",
"wX c #C3A499",
"eX c #D5AC99",
"rX c #C4ACA3",
"tX c #C2ADAC",
"yX c #C6ABA6",
"uX c #CAB3A5",
"iX c #C5B2AC",
"pX c #CBB4AB",
"aX c #C9B5AA",
"sX c #D3B8AA",
"dX c #C3AEB2",
"fX c #C5B2B3",
"gX c #CAB5B5",
"hX c #CCB9B5",
"jX c #CBB6BA",
"kX c #CEBABA",
"lX c #C5B3BB",
"zX c #D2BDBC",
"xX c #D4BDB4",
"cX c #D5C2BD",
"vX c #DCC6BA",
"bX c #E2CBBC",
"nX c #B0A1C5",
"mX c #D3BFC0",
"MX c #C8B7C1",
"NX c #CBB7F2",
"BX c #D5C2C3",
"VX c #DCC9C6",
"CX c #DFCCD0",
"ZX c #E7D4C8",
"AX c #E9D7D3",
"SX c #EED7CB",
"DX c #F7E4D8",
"FX c #FFF5EB",
/* pixels */
"a a a a a a a a v v b H J J J J L ! ! ) _ _ _  .}  . .X.f.j.l.l.m.G.K.[..XoX&X:X,X,X,X:X<XqXrXuXcXFXFXFXFXFXK. .......' s s s s ",
"v v v v v v v v v v H P L L ! ! L ! ! ) _ _ _  . . ...f.j.l.z.z.K.K.[..XoX;X:X,XuXuXuXyXuXaXuXaXVXDXZXAXFXvXf..... ..._ p t i s ",
"p p v b b b H H H H H P L ! ! ! ! ! ^ ^ _ _ _ '  ...X.f.j.l.z.z.F.G.P.{..X;X,X<XaXpXsXuXuXpXaXvXZXZXaXhXDXiXo.X... ..._ p s p s ",
"b b b H H J J P ! ) ` _ _ _ _ _ } }  . .......X.$.$.f.f.j.j.j.j.j.j.j.j.j.x.x.l.x.j.x.X._ o.X.[.AXAXaX5XDXaX .X... ...' p s p s ",
"^ ^ _ _ _ _ } }  . . . ...........X.$.$.$.$.$.$.X.X.X.X.X.X.X...f.q.X.X.X.X.........X.~ t r v z.AXAXaX;XDXaX...... ... .p p p i ",
"f.f.j.j.k.k.k.k.j.j.k.k.k.k.z.z.z.z.b.b.z.b.b.b.z.z.z.z.z.z.l.l.j.j.j.j.l.l.l.l.l.l.m.$.v v m H.AXAX5X;XDXaXo.X... ... .p p a i ",
"z.z.b.F.F.H.H.H.K.~.~.~.~.`.}.}.}.}.}.|.|.|..X#X.X#X#X#X#X.X.X|..X.X|.|. X[.~.K.F.z.F.j.n n m G.ZXZX<X>XDXuXo.X.....$. .p p a i ",
"m.m.F.H.L.K.~.~.~.~.~.[.}. X#X#X.X#X&X;X;X;X>X>X>X>X>X>X>X>X>X;X;X;X;X&X.X.X X[.[.F.b.j.n J m F.vXZXrX>XSXsXX.o.....$. .p p a i ",
"F.H.b.H.H.H.`.~.~.`.[.}.}.|.|.|.&X&X&XoX&X>X:X;X<X>X,X,X<X>X>X>X;X;X>X;X|..X1X(.(.H.D.z.J J Y z.VXvX>X[.DXsXq.X.......o.a s i a ",
"b.D.D.L.~.H.~.H.`.`.[.}.}.|.|..X{.|..X&X;X;X;X;X>X;X;X>X,X>X>X;X>X<X.X|.>X.X[.;X[.H.D.z.J J W z.vXvX>X[.DXpXX.X.X.X.$.o.g s i a ",
"H.H.H.!.H.L.}.}.`.`.[.[.|.|..X.X;X;X;X:X:X:X,XqXqX<XqXqXqX,X,XqX:X:X:X;X&X1X1X X[.L.H.b.P P W z.vXbX<X{.DXuXq.q.$.X.$...g i i a ",
"6 5 5 5 6 J b.~.`.`.[.}.|..X.X.X.XoXoX:X:X;X;X:X:X,X:XoX`.J.`.|.|.|.:X:X|.;X>X}.}.L.L.D.W W W z.vXbXqX{.SXuXq.q.$.X.$...g i i a ",
"X       o 6 k.}.`.[.{.|.|.|.oXoX;X1XoXoX:X,XqXqX&X{.c.( d 9 * ; ; T l.`.>X;X X#X X/.L.D.W W Q m.vXbX,X[.SXuXq.q.X.X.$...g p i a ",
"$ O O O   5 v.}.}.}.|.|.|..XoXoXoX;X;X;X,X,XoXP.x.] n r q 9 9 ; * * = * ^ .X5X.X X~.~.H.! W Q m.vXbX:XP.SXuXq.q.....$...b p i a ",
"X X . O   6 n.}.}.}.|.|.|.oXoXoXoXoXoXXXoX&X`.x.Q N y q y u f f d y r ; = n L..X X~.~.H.! W ! m.vXbX:XP.SXuXq.q.X...$.$.b p i a ",
"$ . . .   6 n.}.}.}.|.|..XoXoXoX{.z.B 9 r ( x.w.5.( ( R R R / <.( B u u 9 = m  X X~.~.H.! W ! m.vXbX:XG.ZXqXq.q.X.X.$.$.b p i i ",
". . O O   5 v.+X}.}.|..X.XoXoX&XF.' ; ; m O.Y.wXU.y.6.t.e.1.1.1./ >.V M u q w m #X(.(./.) ! ! b.vXbXqXF.ZXyXq.q.f.f.$.$.n p p s ",
". $ O O   5 v. X}.}.|..X.XoXoX&XK.o.t m x.OXeXeXU.B.7.p.r.7.3.3.1.>.C M z u 9 ; ! /.(./.L ! ! l.vXbXqXF.ZXyXq.q.f.j.$.$.J p p p ",
". . O O   5 v. X}.}. X.XoXoXoX&XJ.~ y ( P.eXeXT.S.a.p.p.r.r.r.9.r.3.>.C M k u r - D.(./.^ W Y f.xXbX,Xm.ZXyXq.X.f.j.$.$.J p p p ",
". . O O   5 k. X}.}. X.XoXoX&X&XJ.( Q c.OXwX0XC.a.p.p.p.p.p.r.3.2.;.,.>.M l f q *  .~.~.o.Y B q.sXvX:Xz.bXqXq.q.f.j.$.$.J p p p ",
". . O O   5 k. X}.|..X.XoXoX&X&XG.( ( I.OXY.Y.a.a.p.p.p.r.p.s.9.r.1.>.C Z B B d w p K.~._ Y Q f.sXsXoXx.vXqXq.q.f.j.$.$.J p d p ",
". . O O   5 *. X X|..X.XoXoX&X&XG.Q Q c.Y.Y.d.a.a.r.r.r.r.r.s.s.i.9.1.>.Z l B N r ; J.[.~ Q Q q.uXsXoXf.vXqXq.X.j.j.$.$.n p b d ",
". . O O   - *. X X|..X.XoX&X&X&XP.| R 5.V.Z.d.C.V.a.a.a.t.r.a.a.i.y.y.0./ l f Y d ; X.}.! Q Y | rXsXXXq.xX<XX.X.j.j.$.X.b p b d ",
". . O O   - *. X X|..X.XoX&X&X&XJ.| Q V 0.V.d.S.Z.V.Z.S.Z.V.V.V.y.<.k c * = * y y = p [.^ ! Y X.qXuXXX| sX,XX.X.f.j.$.X.b p b d ",
". . . X   - %. X X|.#X&X&X&X&X&XK.' Q N 5.V.U.1.Z k Z z >.y.V.V./ u = c u B f w n ; = $.^ ^ Y X.,XsXXX| uX<Xq.| j.f.$.X.J p d p ",
". . . O   - %. X X|..XoX&X&X&X&XH.' f 0 u.h.,.j e e e e Z y.Z.V.5.B l R R B N T n w + ) _ ^ J o.:XqXP.( uXqXq.| f.f.$.$.J p d p ",
". . . O   - &. X X|.#X&X&X&X&X&XF.o.m e u.y.,.<.u.w.R E ,.u.t.2.M f B f q q y N Y J + J _ ^ J o.&XwXG.Q qX,Xf.| f.$.$.$.Y p d p ",
". . O O   - &. X X|..XoXoX&X&X&X~.~ q u c.V.y.>.M l e E ,.6.7.6.u l ( R z B l l T Q = Y ' ! J o.:XqXP.Q qX:Xf.| $.X.$.$.! p d p ",
". . O O   & &. X X|..XoXoXoX&X&XK.o.q l S.y.u.Z / V l 5.5.4.4.4.l e R E E E M R Q Y ; ' _ J ! ' &XwXP.( <X:Xf.| X.X.f.$.W t p p ",
". . O O   &  . X X|..X.XoXoX&X&XG.m.N M U.a.t.e.e.5.,.5.1.7.7.4.C l V E E ,.E ,.R B q | ~ n ~ ( .X:XP.( :XoXf...$.$.f.$.W t p p ",
". . O O   &  . X X|..X.XoXoX&X&X[.c.V j U.U.B.C.y.e.y.6.7.7.8.8.Z Z E 2.6.6.,.Z R B y ( Q Y Q ( {.oXP.Q oX|.f...$.$.j.f.Y t p p ",
". . . O   & {  X X|..X.XoXoX&X&XXXc.Z.1.C.S.C.C.B.6.B.p.p.7.7.8.;.x j 6.B.e.3.,.Z B e B Q Q Y Q |.oXG.Q {.{.q.o.f.$.j.$.J t p p ",
"$ . X . X & ` +X}.}.{.:X:X.X&X=X].h.c.V.V.S.A.p.s.A.A.A.p.4.7.B.6.z z E e.h.e.,.V k y N Q Y Y ^ [.&XF.W {.G.X.X.X.$.$.&.! p p p ",
"$ . . . X & ` ^.}..X1X[.{.&X&X,XOXh.h.h.y.V.B.s.A.A.s.B.p.6.6.6.:.x e z ,.u.0.,.M u u | ' J J _ `..Xz.m P.P.j.X.$.g.%.&.! p v p ",
"X X . . X & #.}. X.X.XoX:X&X.X=XOXM.c.c.y.t.p.s.s.A.B.A.p.4.4.4.z e e e z >.<.<.M u u x.~ J J ^ K.oXF.n K.K.j.f.%.v.g.%.! p p p ",
"$ $ $ O   & { }.}..XXX:XoX|.,X=Xf.f.c.c.u.u.p.p.s.A.s.p.:.z x x :.E E z k Z V / M f u ] ^ ! P ! G.P.x.B K.H.f.g.g.v.v.%.! p p p ",
"X X X X   O ) `.}.P.P.m.I.qX=X( ~ l.M.c.u.u.y.r.s.p.3.3.3.2.4.:.:.:.C j j Z V R N N y Y ' ! J ^ F.G.j.m G.L.k.%.v.v.n.%.! s p p ",
"& & - & 5 & )  XW r Q m | ,Xl.Y f.`.=XI.h.0.t.r.A.s.3.2.:.;.:.:.C Z z z C ,.V B f m r J $.) H ) L.[.m.n m.H.v.g.v.n.v.%.! s p p ",
"I I I I { 6 !  Xn F.ZXZXbXyX] ] ] J.|.].c.0.u.t.r.s.r.r.7.3.r.e.1.2.2.>.5.<.M l u d w J %.&.U K %.%.' b m.b.k.v.v.v.v.%.L i p i ",
"` { #.&.D.p J }.J xXDXSXZX].] ..' H.|.=XI.0.0.6.3.r.3.p.C.a.t.2.Z >.1.1.1./ k f f y * J &._.` 7 D , # 3 !.H.*.k.k.k.*.&.L a a i ",
"I { { ` { J b $.J m.|.|.xX|.T T ` %.~.M.g.( 1.1.3.>.2.r.V.V.y.y.2.e.u.1.,.M u y y r 5 p n.^.E.MXnXA : 4 E.D.%.j.j.k.k.&.) v a v ",
"U U H H J H b b b J w f.VX.XT n p ) ] f.w.w.V ,.,.2.2.1.e.u.y.y.9.9.>.V V N e 9 y d s ! !.^.!.8XnXA : 8 E.n.*.z.z.z.z.%.` H a H ",
"@.` I ) L J ! J b ! b @XVX,Xg.r J %.%.b.M.c.,.z k M C >.1.0.e.0.9.9./ j u e q q r w 5 ! ^.+X).9X9XS > 4 =.&.` ^ W W J b s - & - ",
"E.=.#.#.` L ) ! ! K ) 7XkXcX<Xt K n.` g.g.h.0.C j j j j j Z / <.C C M u 9 9 q y r 5 & L +X%X+X).+.A A @ # + o o o o o o o o o + ",
"R.=.#.` #.&.` ) & & &.CXgXpXcX*XK %.%.~ l.R u.e.,.Z j k k k k k k 0 0 0 0 q r d t J K ` +X$X%X).+.S 4 : 8 h 3 + = % % % % % % % ",
": : & O 6 &.#.#.& + U 7XmXgXrXkX`.` ^.$.T 9 0.i.1.C Z C C M k k k u u k y y m J * ^ n.v.^.+X$X).@.S 4 : , % % % 3 1 < 1 % % % % ",
"R.F S # 7 -.&.&.#.[ @.n.5XkXpXxXgXn.g.M.+ * 5.h.y.e.,.,.<.<.<.0./ / / B u m T T = t n.!.^.^.$X).=.D , # , , < 2 < < < < < 1 1 1 ",
"NX+.4 @ 8 n.%.&.&.&.=.#.n.4XxXpXgXgXM.J.f c w.h.h.y.y.e.e.e.u.e.0.<./ M u Q ( n * + ` /.+X-X$XE.E.[ 3 # , , < < 2 2 2 2 < < < < ",
"NXS A : 8 n.%.&.&.v.&.&.&.7XkXkXgXfXgXb.`.y ( h.Z.y.y.a.a.r.r.a.a.9.C j / ( Q Y = & %.'.'.2X^.).-X@., + % 1 , < 2 < < 2 2 2 2 1 ",
"NXR.A @ 7 E.#.%.&.` ` !.3XBXcXkXBXgXfX5X`.g.N h.c.Z.S.V.a.a.s.s.r.1.;.M / 5.( r 5 $.@X%X$X%X/.2XE.=.U 7 3 1 , % 1 1 1 1 < < < < ",
"Q.S A : 8 E.&.J J n.dXCXVXBXkXtXiXBXkXzXpX=Xw.N h.Z.S.V.a.V.a.s.3.,.E / w.B f ~ b.4X4X%X%X+X3X$X-X=.=.).N.h % 1 % % % 1 1 1 1 1 ",
"+.F S : 7 %.v.}.jXBXVXlXjXzXkX@X+XfXkX6XxXgXsXc.( 5.h.Z.S.Z.V.V.y.e.y.5.R ( `.*XtX4X-X%X$X$X3X^.%.n./.E.W.-XW.@.F D h h h D D D ",
"G 8 # # &.kXzXBXjXdXMXjXmXzXvXhX@X+XdXfXpXxXhXvXwXOXM.h.w.u.h.c.c.w.R ( =XyXrX5X@X+X+X$X4X%X!.E././.^.^.!.^.@X'.'.n.&.[ K K U L ",
"@ # @.lXCXcXiXkXBXdXdXdXkXgXcXxX5X@X*XgXfXtX5XpXxXxXpXwXOXI.c.w.( ] ].rXpX&X@X'.'.^.$X+X!.^.!.!.!.^.%X+X+X+X@X+X@X'.M.%.) K K H ",
"7 2XAXBXkXfX5X6XtXdXkXfXgXkXvXcXgXtX@X$XdX5XzXyX5XyXpXpXpXyXrX*XM.wXhXrX5X}.^.'.4X^.$X^.n.^.+X^.%X$X%X$X$X$X$X$X+X(.^.!.*.` L H ",
"CXVXkXkXkXgXtX*XdXdXkXkXjXgXxXxXzXzXzXdXfXzXtXdXgXtXtXtX5X@X*XtXxXyX*X*X*X}.+X$X+X4X$X^.$X$X!.^.%X2X3X$X4X4X$X4X4X$X}./.D.%.` H ",
"BXgXgXtXhXiXtX*X5X6XdXjXzXzXxXzXzXzXzXzXzXzXmXBXzXgXjXgXfX6X*X*X5XtXtX6X6X+X$X4X$X%X$X$X+X+X+X+X%X$X4X4X4X4X4X4X4X4X$X^.(.^.&.L ",
"zXgXiXtXgXkXgX5X$X5XdXdXfXkXzXkXgXgXfXdXdXdXfXfXBXkXmXkXkXfX5X5X6XtX6X7X6X+X$X$X3X4X4X$X+X+X+X+X$X2X3X4X4X3X4X5X7X7X$X+X$X%Xv.{ ",
"xXiXrXiXiXzXzXfX$X3X5X6XfXgXkXkXkXjXgXfXdXtXtX6X6X4X6X6XfXfX4X4X5X6X6X6X6X+X3X7X7X6X7X$X+X$X$X$X3X2X3X3X4X3X4X7X7X5X+X+X7X4X!.*.",
"xXtX5XiX7XzXmXkXdX*X$X6XgXfXfXmXmXmXzXzXkXgXfXfXdX6XfXfXdX6X*X$X6X6X6X6X6X$X7X6X6X6X6X$X$X$X$X$X3X2X2X3X3X3X4X6X7X4X^.@X6X3X^.n.",
"cXtX>XiX6XgXkXBXzX>X+X4XfXdXfXjXkXkXzXBXmXzXkXgXkXgXkXgXgXfX4X*XfXgXfXtXtX$X4X6X6X6X4X$X$X4X4X$X3X2X2X3X3X3X4X6X6X4X^.$X6X$X@X/.",
"cXfX5X6XtXfXgXcXcXfX>X$X4XfXjXdXgXjXkXzXBXmXzXkXgXfXjXgXgXjX6X4XfXgXfXtXtX$X5XtX6X6X4X3X4X6X4X$X3X$X3X4X3X$X4X6X6X4X^.4X4X+X3X'.",
"zXkX6X4XdXfXfXkXcXcXiX$X*XdXlXdXfXgXjXkXkXzXzXzXBXzXzXgXgXgX5X*XtXiXfXtXtX*X7XdXtX6X4X4X6X6X4X4X4X3X3X4X3X$X4X6XfX$X!.7X3X^.6X+X",
"kXBXfX$XdXfXfXgXcXcXhX4X$X4XdXlXdXfXfXfXgXgXkXzXzXkXkXfXfXgX5X*XiXgXgXtXtX$X5XtX6X7X7X6X6X5X4X4X4X4X4X4X4X$X4XfXgX$X!.6X3X^.fX+X"
};
